<?xml version="1.0" encoding="UTF-8"?>
<svg width="22px" height="24px" viewBox="0 0 22 24" version="1.1" xmlns="http://www.w3.org/2000/svg" xmlns:xlink="http://www.w3.org/1999/xlink">
    <!-- Generator: Sketch 57.1 (83088) - https://sketch.com -->
    <title>Group@1x</title>
    <desc>Created with Sketch.</desc>
    <g id="-" stroke="none" stroke-width="1" fill="none" fill-rule="evenodd">
        <g id="Glyphs-/-Tab-Bar-/-Notifications-/-Disabled" transform="translate(-13.000000, -3.000000)">
            <g id="Group" transform="translate(15.437892, 5.000000)">
                <path d="M5.56210817,18.5 C5.56210817,20.1568542 6.90525397,21.5 8.56210817,21.5 C10.2189624,21.5 11.5621082,20.1568542 11.5621082,18.5 L5.56210817,18.5 Z" id="Combined-Shape" fill="#8B8F98" fill-rule="nonzero"></path>
                <path d="M0.855001384,12.2928932 C-0.547697726,13.6955923 -0.163629776,16 1.56210816,16 C2.14023316,16 2.14023316,16 3.89023316,16 C6.03085817,16 6.03085817,16 8.56210817,16 C11.0933582,16 11.0933582,16 13.2339832,16 C14.9839832,16 14.9839832,16 15.5621082,16 C17.2878462,16 17.6719141,13.6955923 16.269215,12.2928932 C15.7487416,11.7724198 15.363193,11.1754789 15.0909867,10.5051137 C14.6661814,9.4589418 14.5620429,8.5350211 14.5621076,7.0212457 C14.562108,7.0105998 14.562108,7.0105998 14.5621082,7 C14.5621082,2.72810928 12.475907,0 8.56210817,0 C4.64830938,0 2.56210817,2.72810928 2.56210817,7 C2.56210817,10.5001465 2.52390203,10.6239926 0.855001384,12.2928932 L0.855001384,12.2928932 Z" id="Oval-24" stroke="#8B8F98" stroke-width="3" stroke-linecap="round" stroke-linejoin="round"></path>
            </g>
        </g>
    </g>
</svg>